<?xml version="1.0" encoding="utf-8"?>
<!-- Generator: Adobe Illustrator 19.2.1, SVG Export Plug-In . SVG Version: 6.00 Build 0)  -->
<svg version="1.1" id="Layer_1" xmlns="http://www.w3.org/2000/svg" xmlns:xlink="http://www.w3.org/1999/xlink" x="0px" y="0px"
	 viewBox="0 0 282.6 18" style="enable-background:new 0 0 282.6 18;" xml:space="preserve">
<style type="text/css">
	.st0{fill:#FFFFFF;}
</style>
<g>
	<g>
		<path class="st0" d="M30,3.4c0,0.1,0,0.3,0,0.4C30,3.9,30,4,29.9,4c0,0.1-0.1,0.1-0.1,0.1c-0.1,0-0.1,0-0.2,0h-4.2v13
			c0,0.1,0,0.1,0,0.2c0,0-0.1,0.1-0.2,0.1c-0.1,0-0.2,0.1-0.3,0.1c-0.1,0-0.3,0-0.5,0c-0.2,0-0.3,0-0.5,0c-0.1,0-0.2,0-0.3-0.1
			c-0.1,0-0.1-0.1-0.2-0.1c0,0,0-0.1,0-0.2v-13h-4.2c-0.1,0-0.1,0-0.2,0c0,0-0.1-0.1-0.1-0.1c0-0.1-0.1-0.2-0.1-0.3
			c0-0.1,0-0.2,0-0.4c0-0.1,0-0.3,0-0.4c0-0.1,0-0.2,0.1-0.3c0-0.1,0.1-0.1,0.1-0.2c0.1,0,0.1,0,0.2,0h10.4c0.1,0,0.1,0,0.2,0
			c0,0,0.1,0.1,0.1,0.2C30,2.8,30,2.9,30,3C30,3.1,30,3.2,30,3.4z"/>
		<path class="st0" d="M42.8,17.2c0,0.1,0,0.1,0,0.2c0,0-0.1,0.1-0.1,0.1c-0.1,0-0.2,0.1-0.3,0.1c-0.1,0-0.3,0-0.6,0
			c-0.2,0-0.4,0-0.5,0c-0.1,0-0.2,0-0.3-0.1c-0.1,0-0.1-0.1-0.2-0.1c0-0.1-0.1-0.1-0.1-0.2l-1.4-3.5c-0.2-0.4-0.3-0.8-0.5-1.1
			c-0.2-0.3-0.4-0.6-0.6-0.9c-0.2-0.2-0.5-0.4-0.8-0.6c-0.3-0.1-0.7-0.2-1.2-0.2h-1.3v6.4c0,0.1,0,0.1-0.1,0.2c0,0-0.1,0.1-0.2,0.1
			c-0.1,0-0.2,0.1-0.3,0.1c-0.1,0-0.3,0-0.5,0c-0.2,0-0.4,0-0.5,0c-0.1,0-0.2,0-0.3-0.1c-0.1,0-0.1-0.1-0.2-0.1c0,0,0-0.1,0-0.2V3.4
			c0-0.3,0.1-0.5,0.2-0.6c0.2-0.1,0.3-0.2,0.5-0.2h3.2c0.4,0,0.7,0,0.9,0c0.3,0,0.5,0,0.7,0.1c0.6,0.1,1.1,0.3,1.5,0.5
			c0.4,0.2,0.8,0.5,1.1,0.8c0.3,0.3,0.5,0.7,0.7,1.1c0.2,0.4,0.2,0.9,0.2,1.4c0,0.5-0.1,1-0.2,1.3c-0.1,0.4-0.3,0.7-0.6,1.1
			c-0.3,0.3-0.6,0.6-0.9,0.8c-0.4,0.2-0.8,0.4-1.2,0.6c0.2,0.1,0.5,0.2,0.7,0.4c0.2,0.2,0.4,0.4,0.6,0.6c0.2,0.2,0.3,0.5,0.5,0.8
			c0.2,0.3,0.3,0.6,0.5,1l1.3,3.3c0.1,0.3,0.2,0.5,0.2,0.6C42.8,17.1,42.8,17.2,42.8,17.2z M39.8,6.7c0-0.6-0.1-1.1-0.4-1.5
			c-0.3-0.4-0.7-0.7-1.3-0.9c-0.2-0.1-0.4-0.1-0.7-0.1c-0.2,0-0.6,0-1,0h-1.7v5h1.9c0.5,0,1-0.1,1.4-0.2c0.4-0.1,0.7-0.3,1-0.5
			c0.3-0.2,0.4-0.5,0.6-0.8C39.8,7.4,39.8,7.1,39.8,6.7z"/>
		<path class="st0" d="M56.1,11.9c0,0.9-0.1,1.7-0.4,2.4c-0.3,0.7-0.6,1.3-1.1,1.8c-0.5,0.5-1.1,0.9-1.8,1.1
			c-0.7,0.3-1.5,0.4-2.4,0.4c-0.8,0-1.6-0.1-2.2-0.4c-0.7-0.2-1.2-0.6-1.7-1c-0.5-0.5-0.8-1-1.1-1.7C45.2,13.8,45,13,45,12.1V2.9
			c0-0.1,0-0.1,0-0.2c0,0,0.1-0.1,0.2-0.1c0.1,0,0.2-0.1,0.3-0.1c0.1,0,0.3,0,0.5,0c0.2,0,0.3,0,0.5,0c0.1,0,0.2,0,0.3,0.1
			c0.1,0,0.1,0.1,0.2,0.1c0,0,0,0.1,0,0.2v8.9c0,0.7,0.1,1.3,0.2,1.8c0.2,0.5,0.4,0.9,0.7,1.3c0.3,0.3,0.7,0.6,1.1,0.8
			c0.4,0.2,0.9,0.3,1.5,0.3c0.6,0,1.1-0.1,1.5-0.3c0.4-0.2,0.8-0.4,1.1-0.8c0.3-0.3,0.5-0.7,0.7-1.2c0.2-0.5,0.2-1.1,0.2-1.7v-9
			c0-0.1,0-0.1,0-0.2c0,0,0.1-0.1,0.2-0.1c0.1,0,0.2-0.1,0.3-0.1c0.1,0,0.3,0,0.5,0c0.2,0,0.3,0,0.5,0c0.1,0,0.2,0,0.3,0.1
			c0.1,0,0.1,0.1,0.2,0.1c0,0,0,0.1,0,0.2V11.9z"/>
		<path class="st0" d="M67.4,13.3c0,0.7-0.1,1.3-0.4,1.8c-0.3,0.5-0.6,1-1,1.4c-0.4,0.4-1,0.7-1.6,0.8c-0.6,0.2-1.3,0.3-2,0.3
			c-0.5,0-0.9,0-1.4-0.1c-0.4-0.1-0.8-0.2-1.1-0.3c-0.3-0.1-0.6-0.2-0.8-0.4c-0.2-0.1-0.4-0.2-0.5-0.3c-0.1-0.1-0.2-0.2-0.2-0.3
			c0-0.1-0.1-0.3-0.1-0.6c0-0.2,0-0.3,0-0.4c0-0.1,0-0.2,0.1-0.3c0-0.1,0.1-0.1,0.1-0.1c0,0,0.1,0,0.2,0c0.1,0,0.3,0.1,0.4,0.2
			c0.2,0.1,0.4,0.3,0.7,0.4c0.3,0.2,0.7,0.3,1.1,0.4c0.4,0.1,0.9,0.2,1.5,0.2c0.4,0,0.8-0.1,1.2-0.2c0.3-0.1,0.7-0.3,0.9-0.5
			c0.2-0.2,0.4-0.5,0.6-0.8c0.1-0.3,0.2-0.6,0.2-1c0-0.4-0.1-0.8-0.3-1.1c-0.2-0.3-0.4-0.6-0.7-0.8c-0.3-0.2-0.7-0.4-1.1-0.6
			c-0.4-0.2-0.8-0.4-1.2-0.6c-0.4-0.2-0.8-0.4-1.2-0.6c-0.4-0.2-0.7-0.5-1-0.8c-0.3-0.3-0.6-0.7-0.8-1.1c-0.2-0.4-0.3-0.9-0.3-1.5
			c0-0.6,0.1-1.2,0.3-1.6c0.2-0.5,0.5-0.9,0.9-1.2c0.4-0.3,0.9-0.6,1.4-0.7c0.5-0.2,1.1-0.3,1.8-0.3c0.3,0,0.6,0,1,0.1
			c0.3,0.1,0.6,0.1,0.9,0.2c0.3,0.1,0.5,0.2,0.8,0.3c0.2,0.1,0.4,0.2,0.4,0.3c0.1,0.1,0.1,0.1,0.1,0.2c0,0,0,0.1,0.1,0.2
			c0,0.1,0,0.1,0,0.2c0,0.1,0,0.2,0,0.3c0,0.1,0,0.3,0,0.4c0,0.1,0,0.2-0.1,0.3c0,0.1-0.1,0.1-0.1,0.2c0,0-0.1,0.1-0.1,0.1
			c-0.1,0-0.2-0.1-0.4-0.2c-0.2-0.1-0.4-0.2-0.6-0.4c-0.3-0.1-0.6-0.3-0.9-0.4c-0.4-0.1-0.7-0.2-1.2-0.2c-0.4,0-0.8,0.1-1.1,0.2
			c-0.3,0.1-0.6,0.3-0.7,0.4c-0.2,0.2-0.3,0.4-0.4,0.6c-0.1,0.2-0.1,0.5-0.1,0.8c0,0.4,0.1,0.8,0.3,1c0.2,0.3,0.4,0.6,0.8,0.8
			c0.3,0.2,0.7,0.4,1.1,0.6C63.2,8.8,63.6,9,64,9.2c0.4,0.2,0.8,0.4,1.2,0.6c0.4,0.2,0.8,0.5,1.1,0.8c0.3,0.3,0.6,0.7,0.8,1.1
			C67.3,12.2,67.4,12.7,67.4,13.3z"/>
		<path class="st0" d="M79.7,3.4c0,0.1,0,0.3,0,0.4c0,0.1,0,0.2-0.1,0.3c0,0.1-0.1,0.1-0.1,0.1c0,0-0.1,0-0.2,0h-4.2v13
			c0,0.1,0,0.1,0,0.2c0,0-0.1,0.1-0.2,0.1c-0.1,0-0.2,0-0.3,0.1c-0.1,0-0.3,0-0.5,0c-0.2,0-0.3,0-0.5,0c-0.1,0-0.2,0-0.3-0.1
			c-0.1,0-0.1-0.1-0.2-0.1c0,0,0-0.1,0-0.2v-13h-4.2c-0.1,0-0.1,0-0.2,0c-0.1,0-0.1-0.1-0.1-0.1c0-0.1-0.1-0.2-0.1-0.3
			c0-0.1,0-0.2,0-0.4c0-0.1,0-0.3,0-0.4c0-0.1,0-0.2,0.1-0.3c0-0.1,0.1-0.1,0.1-0.2c0.1,0,0.1,0,0.2,0h10.4c0.1,0,0.1,0,0.2,0
			c0,0,0.1,0.1,0.1,0.2c0,0.1,0.1,0.2,0.1,0.3C79.7,3.1,79.7,3.2,79.7,3.4z"/>
		<path class="st0" d="M91.3,6.9c0,0.7-0.1,1.4-0.4,2c-0.2,0.6-0.6,1.1-1.1,1.5c-0.5,0.4-1,0.8-1.7,1c-0.7,0.2-1.5,0.3-2.4,0.3h-1.7
			v5.4c0,0.1,0,0.1-0.1,0.2c0,0-0.1,0.1-0.2,0.1c-0.1,0-0.2,0.1-0.3,0.1c-0.1,0-0.3,0-0.5,0c-0.2,0-0.4,0-0.5,0
			c-0.1,0-0.2,0-0.3-0.1c-0.1,0-0.1-0.1-0.2-0.1c0,0,0-0.1,0-0.2V3.4c0-0.3,0.1-0.5,0.2-0.7c0.2-0.1,0.3-0.2,0.5-0.2h3.2
			c0.3,0,0.6,0,0.9,0c0.3,0,0.6,0.1,1.1,0.2c0.4,0.1,0.8,0.3,1.2,0.5c0.4,0.2,0.8,0.5,1.1,0.9c0.3,0.4,0.5,0.8,0.7,1.2
			C91.2,5.8,91.3,6.4,91.3,6.9z M89.2,7.1c0-0.6-0.1-1.1-0.3-1.5c-0.2-0.4-0.5-0.7-0.8-0.9c-0.3-0.2-0.7-0.3-1-0.4
			c-0.4-0.1-0.7-0.1-1-0.1h-1.8v6h1.8c0.6,0,1.1-0.1,1.5-0.2c0.4-0.2,0.7-0.4,1-0.6c0.3-0.3,0.5-0.6,0.6-1C89.1,8,89.2,7.5,89.2,7.1
			z"/>
		<path class="st0" d="M96,17.2c0,0.1,0,0.1,0,0.2c0,0-0.1,0.1-0.2,0.1c-0.1,0-0.2,0.1-0.3,0.1c-0.1,0-0.3,0-0.5,0
			c-0.2,0-0.3,0-0.5,0c-0.1,0-0.2,0-0.3-0.1c-0.1,0-0.1-0.1-0.2-0.1c0,0,0-0.1,0-0.2V2.9c0-0.1,0-0.1,0.1-0.2c0,0,0.1-0.1,0.2-0.1
			c0.1,0,0.2-0.1,0.3-0.1c0.1,0,0.3,0,0.5,0c0.2,0,0.4,0,0.5,0c0.1,0,0.2,0,0.3,0.1c0.1,0,0.1,0.1,0.2,0.1c0,0,0,0.1,0,0.2V17.2z"/>
		<path class="st0" d="M107.5,16.7c0,0.2,0,0.3,0,0.4c0,0.1,0,0.2-0.1,0.3c0,0.1-0.1,0.1-0.1,0.2c0,0-0.1,0.1-0.2,0.1h-6.6
			c-0.2,0-0.3-0.1-0.5-0.2c-0.2-0.1-0.2-0.3-0.2-0.6V2.9c0-0.1,0-0.1,0-0.2c0,0,0.1-0.1,0.2-0.1c0.1,0,0.2-0.1,0.3-0.1
			c0.1,0,0.3,0,0.5,0c0.2,0,0.4,0,0.5,0c0.1,0,0.2,0,0.3,0.1c0.1,0,0.1,0.1,0.2,0.1c0,0,0,0.1,0,0.2v13h5.4c0.1,0,0.1,0,0.2,0.1
			c0.1,0,0.1,0.1,0.1,0.1c0,0.1,0.1,0.2,0.1,0.3C107.5,16.4,107.5,16.6,107.5,16.7z"/>
		<path class="st0" d="M121,9.9c0,1.2-0.1,2.2-0.4,3.2c-0.3,0.9-0.7,1.8-1.2,2.4c-0.6,0.7-1.2,1.2-2.1,1.5c-0.8,0.4-1.8,0.5-2.9,0.5
			c-1.1,0-2-0.2-2.8-0.5c-0.8-0.3-1.5-0.8-2-1.4c-0.5-0.6-0.9-1.4-1.2-2.3c-0.3-0.9-0.4-2-0.4-3.2c0-1.1,0.1-2.2,0.4-3.1
			c0.3-0.9,0.7-1.7,1.3-2.4c0.6-0.7,1.3-1.2,2.1-1.5c0.8-0.4,1.8-0.5,2.9-0.5c1.1,0,2,0.2,2.8,0.5c0.8,0.3,1.5,0.8,2,1.4
			c0.5,0.6,0.9,1.4,1.2,2.3C120.9,7.6,121,8.7,121,9.9z M119,10c0-0.8-0.1-1.6-0.2-2.3c-0.1-0.7-0.4-1.3-0.7-1.8
			c-0.3-0.5-0.8-0.9-1.4-1.2c-0.6-0.3-1.3-0.4-2.1-0.4c-0.8,0-1.5,0.2-2.1,0.5c-0.6,0.3-1,0.7-1.4,1.3c-0.4,0.5-0.6,1.1-0.8,1.8
			c-0.2,0.7-0.2,1.4-0.2,2.2c0,0.9,0.1,1.6,0.2,2.4c0.1,0.7,0.4,1.3,0.7,1.9c0.3,0.5,0.8,0.9,1.4,1.2c0.6,0.3,1.3,0.4,2.1,0.4
			c0.8,0,1.6-0.2,2.1-0.5c0.6-0.3,1-0.7,1.4-1.3c0.4-0.5,0.6-1.2,0.8-1.9C118.9,11.5,119,10.8,119,10z"/>
		<path class="st0" d="M132.6,3.4c0,0.1,0,0.3,0,0.4c0,0.1,0,0.2-0.1,0.3c0,0.1-0.1,0.1-0.1,0.1c-0.1,0-0.1,0-0.2,0H128v13
			c0,0.1,0,0.1,0,0.2c0,0-0.1,0.1-0.2,0.1c-0.1,0-0.2,0.1-0.3,0.1c-0.1,0-0.3,0-0.5,0c-0.2,0-0.3,0-0.5,0c-0.1,0-0.2,0-0.3-0.1
			c-0.1,0-0.1-0.1-0.2-0.1c0,0,0-0.1,0-0.2v-13h-4.2c-0.1,0-0.1,0-0.2,0c-0.1,0-0.1-0.1-0.1-0.1c0-0.1-0.1-0.2-0.1-0.3
			c0-0.1,0-0.2,0-0.4c0-0.1,0-0.3,0-0.4c0-0.1,0-0.2,0.1-0.3c0-0.1,0.1-0.1,0.1-0.2c0.1,0,0.1,0,0.2,0h10.4c0.1,0,0.1,0,0.2,0
			c0,0,0.1,0.1,0.1,0.2c0,0.1,0.1,0.2,0.1,0.3C132.6,3.1,132.6,3.2,132.6,3.4z"/>
		<path class="st0" d="M0,2.8v6.4c0,0,4.8,2.3,7.2,6.4c0,0,1.1-9.1,7.1-12.8H0z"/>
		<path class="st0" d="M0,14.4v2.8h6.5C6.5,17.2,4,14.6,0,14.4z M8.2,17.2h6.2V9C10.9,9.9,8.2,17.2,8.2,17.2z"/>
	</g>
	<g>
		<polygon class="st0" points="160.6,0 162.8,6.9 170.1,6.9 164.2,11.1 166.4,18 160.6,13.7 154.8,18 157,11.1 151.1,6.9 158.4,6.9 
					"/>
		<polygon class="st0" points="188.9,0 191.1,6.9 198.3,6.9 192.5,11.1 194.7,18 188.9,13.7 183,18 185.2,11.1 179.4,6.9 186.6,6.9 
					"/>
		<polygon class="st0" points="216.7,0 219,6.9 226.2,6.9 220.4,11.1 222.6,18 216.7,13.7 210.9,18 213.1,11.1 207.3,6.9 214.5,6.9 
					"/>
		<polygon class="st0" points="245,0 247.2,6.9 254.5,6.9 248.6,11.1 250.8,18 245,13.7 239.2,18 241.4,11.1 235.5,6.9 242.8,6.9 		
			"/>
		<polygon class="st0" points="273.2,0 275.4,6.9 282.6,6.9 276.8,11.1 279,18 273.2,13.7 267.3,18 269.6,11.1 263.7,6.9 271,6.9 		
			"/>
	</g>
</g>
</svg>
