<svg enable-background="new 0 0 4249.7 2749.1" viewBox="0 0 4249.7 2749.1" xmlns="http://www.w3.org/2000/svg"><g fill="#fff"><path d="m2039.6 1083.9v-442.8l-126.6 44.1v-131.8l-126.6 44.1v-131.9l-126.6 44.1v-131.9l-126.6 44.1v-131.8l-126.6 44.1v-131.9l-126.6 44.1v-131.8l-1181.6 411.2v441.5l126.6-44v131.8l126.6-44v131.8l125.7-43.7v480.5l-378.9 131.7v442.8l126.6-44.1v131.8l126.6-44.1v131.8l126.6-44.1v131.8l126.6-44.1v131.8l126.6-44.1v131.8l126.6-44.1v131.8l1181.7-411.3v-441.1l-126.6 44v-131.8l-126.6 44v-131.8l-125.7 43.7v-480.4zm-43.3-381.9v351.1l-378.8 131.8v394.5l-83.3 29v-480.4l378.8-131.8v-265.2zm-209.9 1259.9 83.3-29v218l-968.5 337.1v-86l885.2-308.1zm-43.2 101.3-841.9 293v-86l758.6-264v-.3l83.3-29zm-1391.6-1229.8-83.3 29v-218l968.5-337.1v86l-885.2 308.1zm43.3-15v-86.2l841.9-293v86zm1221.7 893.1-82.4 28.7v-86l82.4-28.7zm-886.2-614.5-82.4 28.7v-86l82.4-28.7zm633 570.8-82.4 28.7v-85.9l82.4-28.7zm-379.8-395.3-82.3 28.6v-86l82.3-28.6zm-82.3 74.5 82.3-28.6v86l-82.3 28.6zm335.5 101.3-82.3 28.6v-86l82.3-28.6zm-82.3 74.5 82.3-28.6v86l-82.3 28.6zm-44.3-162.5-82.3 28.6v-86l82.3-28.6zm-125.6-219.9-83.3 29v-86.2l83.3-29zm-126.7-88v.3l-83.3 29v-86.2l83.4-29zm-83.3 75 82.4-28.7v86l-82.4 28.7zm253.3 307.6 82.3-28.6v85.9l-82.3 28.6zm125.6 219.9 83.3-29v86.2l-83.3 29zm126.6 88v-.3l83.3-29v86.2l-83.4 29zm127.5-44.6 82.4-28.7v86l-82.4 28.7zm82.4-74.5-82.4 28.7v-85.9l82.4-28.7zm-126.6-87.8-82.4 28.7v-86l82.4-28.7zm-125.6-220.1-83.3 29v-349.9l83.3-29zm-126.6-87.8-83.3 29v-218l83.3-29zm-83.3-234.9v-86l83.3-29v86zm-43.3 15.1-83.3 29v-86l83.3-29zm-83.3-102.8v-86l83.3-29v86zm-253.2 88.4v-86.2l209.9-73.1v86zm-126.6-87.8v-86.2l336.5-117.1v86zm82.3 17.2v86l-82.4 28.7v-86zm44.3 248.2 82.4-28.7v86l-82.4 28.7zm126.5 87.7 82.4-28.7v86l-82.4 28.7zm125.7 220.2 83.3-29v349.8l-83.3 29zm126.6 87.8 83.3-29v218l-83.3 29zm83.3 234.9v86l-83.3 29v-86zm43.3-15.1 83.3-29v86l-83.3 29zm83.3 102.8v86l-83.3 29v-86zm253.2-88.4v86.1l-209.9 73.2v-86zm126.6 87.8v86.2l-336.5 117.1v-86zm-82.4-17.2v-86l82.4-28.7v85.9zm-43.3-774.8v394.5l-83.3 29v-480.4l378.8-131.8v-133.4l83.3-29v219.3zm252.3-219.6-378.8 131.8v394.5l-83.3 29v-481.6l462.1-161.2zm-83.3-104.3v-86l83.3-29v86zm-43.3 15-462.1 160.8v-85.9l462.1-160.9zm-83.3-102.8v-86l83.3-29v86zm-43.3 15.1-462.1 160.8v-85.9l462.1-160.9zm-83.3-102.8v-86l83.3-29v86zm-43.3 15-462.1 160.9v-86l462.1-160.8zm-83.3-102.8v-86l83.3-29v86zm-802.8 325.5v86l-82.4 28.7v-86zm44.2 248.2 82.4-28.7v86l-82.4 28.7zm125.6 614.4v-394.5l83.3-29v480.5l-378.8 131.8v133.4l-83.3 29v-219.3zm-252.2 307.1v-87.5l378.8-131.8v-394.5l83.3-29v481.8zm83.3 16.8v86l-83.3 29v-86zm43.3-15.1 462.1-160.8v85.8l-462.1 161zm83.3 102.9v86l-83.3 29v-86zm43.3-15.1 462.1-160.8v84.5l-462.2 160.9zm83.2 102.8v86l-83.3 29v-86zm43.3-15 462.1-160.8v86l-462.1 160.8zm83.3 102.8v86l-83.3 29v-86zm802.9-325.6v-85.9l82.4-28.6v85.9zm208.9-1345.4v86l-83.3 29v-86zm-126.5-87.8v86l-83.3 29v-86zm-126.6-87.7v86l-83.3 29v-86zm-126.6-87.8v86l-83.3 29v-86zm-126.6-87.8v86l-83.3 29v-86zm-1221.7 643.2v-349.8l1095.1-381.1v86l-1011.8 352.1v263.8zm126.6 87.8v-86l83.3-29v86zm126.6 87.7v-86l82.4-28.7v86zm-253.2 1011.4v-351.1l378.8-131.8v-394.5l83.3-29v480.5l-378.8 131.7v265.2zm126.6 87.7v-86l83.3-29v86zm126.6 87.8v-86l83.3-29v86zm126.6 87.7v-86l83.3-29v86zm126.6 87.8v-86l83.3-29v86zm126.5 87.7v-86l83.3-29v86zm1221.7-643.1v349.8l-1095.1 381.1v-86l1011.8-352.1v-263.8zm-126.6-87.8v85.9l-83.3 29v-85.9zm-126.5-87.7v85.9l-82.4 28.6v-85.9z"/><path d="m2312.4 1567.1h-138.2l-41.5 75.7h-93l216.5-372.6h96.2l56.2 372.6h-86.2zm-96.2-75.7h86.2l-16.3-128.2z"/><path d="m2610.9 1349.5-62.5 293.2h-83l62-293.2h-109.4l17.3-79.4h296.9l-17.3 79.4z"/><path d="m2908.8 1262.3c100.9 0 166.6 68.3 166.6 168.7 0 137.2-97.7 219.7-201.3 219.7-99.3 0-166.1-68.8-166.1-169.2 0-137.2 97.2-219.2 200.8-219.2zm-4.2 79.9c-54.1 0-111.4 47.3-111.4 134.5 0 55.7 31.5 93 85.1 93 54.1 0 111.9-48.3 111.9-135.6 0-54.6-30.5-91.9-85.6-91.9z"/><path d="m3417.5 1642.8 52.6-246.5-147.1 246.5h-66.2l-47.8-243.3-52 243.3h-78.3l78.8-372.6h103l51 251.2 146.1-251.2h120.9l-79.4 372.6z"/><path d="m3576.9 1475.6 196-200.5h105.9l-45.9 216.4h59.5l-15.9 74.8h-59.5l-15.9 76.5h-88.9l15.9-76.5h-170.5zm192.6-104.8-117.8 120.7h92.3z"/><path d="m3884.8 1626.9c11.9-68 42.5-119 119-152.4l66.3-28.9c34-14.7 52.7-31.2 52.7-58.3 0-21-11.9-41.9-47-41.9-39.1 0-55.5 30-55.5 72.5l-82.1-8.5c0-81.6 54.9-142.8 143.9-142.8 87.8 0 129.2 52.1 129.2 110.5 0 61.7-38 103.1-99.7 130.3l-76.5 33.4c-12.5 5.7-23.8 14.2-32.3 27.2h168.2l-15.9 74.8h-272.5c.5-.6 2.2-15.3 2.2-15.9z"/></g></svg>