<?xml version="1.0" encoding="utf-8"?>
<!-- Generator: Adobe Illustrator 19.2.0, SVG Export Plug-In . SVG Version: 6.00 Build 0)  -->
<svg version="1.1" id="Layer_1" xmlns="http://www.w3.org/2000/svg" xmlns:xlink="http://www.w3.org/1999/xlink" x="0px" y="0px"
	 viewBox="0 0 242.8 18" style="enable-background:new 0 0 242.8 18;" xml:space="preserve">
<style type="text/css">
	.st0{fill:#FFFFFF;}
</style>
<g>
	<polygon class="st0" points="120.8,0 123,6.9 130.3,6.9 124.4,11.1 126.6,18 120.8,13.7 115,18 117.2,11.1 111.3,6.9 118.6,6.9 	
		"/>
	<polygon class="st0" points="149.1,0 151.3,6.9 158.5,6.9 152.7,11.1 154.9,18 149.1,13.7 143.2,18 145.4,11.1 139.6,6.9 
		146.8,6.9 	"/>
	<polygon class="st0" points="176.9,0 179.2,6.9 186.4,6.9 180.6,11.1 182.8,18 176.9,13.7 171.1,18 173.3,11.1 167.5,6.9 
		174.7,6.9 	"/>
	<polygon class="st0" points="205.2,0 207.4,6.9 214.7,6.9 208.8,11.1 211,18 205.2,13.7 199.4,18 201.6,11.1 195.7,6.9 203,6.9 	
		"/>
	<polygon class="st0" points="233.4,0 235.6,6.9 242.8,6.9 237,11.1 239.2,18 233.4,13.7 227.5,18 229.8,11.1 223.9,6.9 231.2,6.9 	
		"/>
</g>
<g>
	<g>
		<path id="wordmark_3_" class="st0" d="M10.1,3.9H7.9C7.8,3.9,7.7,4,7.7,4.1v1.1C7.2,4.4,6,3.7,4.5,3.7C2.1,3.7,0,5.5,0,8.8
			c0,3.2,2,5,4.6,5c1.4,0,2.5-0.6,3.1-1.5v0.6c0,1.4-0.7,2.5-2.9,2.5c-1.1,0-2-0.4-2.8-1.1c-0.1-0.1-0.3-0.1-0.3,0l-1,1.6
			c-0.1,0.2-0.1,0.3,0,0.4c1,0.9,2.3,1.4,4.2,1.4c4.1,0,5.3-2.3,5.3-4.8V4.1C10.3,4,10.2,3.9,10.1,3.9z M5.2,11.4
			c-1.5,0-2.6-1-2.6-2.6s1.1-2.6,2.6-2.6s2.5,1,2.5,2.6C7.8,10.4,6.7,11.4,5.2,11.4z M15,0.2v13.3c0,0.1-0.1,0.2-0.2,0.2h-2.2
			c-0.1,0-0.2-0.1-0.2-0.2V0.2c0-0.1,0.1-0.2,0.2-0.2h2.2C14.9,0,15,0.1,15,0.2z M21.4,3.7c-2,0-3.6,0.7-4.3,2c0,0.1,0,0.2,0.1,0.3
			l1.6,1.1c0.1,0.1,0.2,0,0.3-0.1c0.4-0.8,1.4-1,2.3-1c1.2,0,1.7,0.4,1.7,1v0.2c0,0.2-0.1,0.4-0.5,0.4l-2.7,0.2
			c-1.8,0.2-3.1,1.3-3.1,3.1c0,1.8,1.4,3,3.3,3c1.5,0,2.5-0.7,3-1.5v1.1c0,0.1,0.1,0.2,0.2,0.2h2.1c0.1,0,0.2-0.1,0.2-0.2V7.7
			C25.7,5,24.2,3.7,21.4,3.7z M23.1,9.7c0,1.1-0.9,2-2.2,2c-0.9,0-1.4-0.4-1.4-1c0-0.5,0.4-1,1.2-1.1l2.4-0.3L23.1,9.7z M36,10.7
			c0,2.2-1.6,3.2-4.2,3.2c-1.8,0-3.3-0.5-4.2-1.5c-0.1-0.1-0.1-0.2,0-0.3l1.2-1.6c0.1-0.1,0.2-0.1,0.3,0c0.7,0.7,1.7,1.1,2.9,1.1
			c0.7,0,1.3-0.2,1.3-0.7c0-0.5-0.5-0.6-2.2-1c-1.4-0.3-3.2-1-3.2-3.1c0-2,1.6-3.1,4.1-3.1c1.7,0,2.9,0.5,3.7,1.3
			c0.1,0.1,0.1,0.2,0,0.3l-1.2,1.5c-0.1,0.1-0.2,0.1-0.3,0C33.7,6.3,32.8,6,31.8,6c-0.8,0-1.2,0.3-1.2,0.7c0,0.5,0.5,0.6,2.3,1
			C34.5,8,36,8.7,36,10.7z M45.9,10.7c0,2.2-1.6,3.2-4.2,3.2c-1.8,0-3.3-0.5-4.2-1.5c-0.1-0.1-0.1-0.2,0-0.3l1.2-1.6
			c0.1-0.1,0.2-0.1,0.3,0c0.7,0.7,1.7,1.1,2.9,1.1c0.7,0,1.3-0.2,1.3-0.7c0-0.5-0.5-0.6-2.2-1c-1.4-0.3-3.2-1-3.2-3.1
			c0-2,1.6-3.1,4.1-3.1c1.7,0,2.9,0.5,3.7,1.3c0.1,0.1,0.1,0.2,0,0.3l-1.2,1.5c-0.1,0.1-0.2,0.1-0.3,0C43.6,6.3,42.7,6,41.7,6
			c-0.8,0-1.2,0.3-1.2,0.7c0,0.5,0.5,0.6,2.3,1C44.4,8,45.9,8.7,45.9,10.7z M57.4,0h-2.1C55.1,0,55,0.1,55,0.2v5.1
			c-0.7-0.9-1.8-1.7-3.3-1.7c-2.4,0-4.4,1.8-4.4,5.2s2,5.1,4.5,5.1c1.4,0,2.5-0.6,3.2-1.6v1.1c0,0.1,0.1,0.2,0.2,0.2h2.1
			c0.1,0,0.2-0.1,0.2-0.2V0.2C57.6,0.1,57.5,0,57.4,0z M52.5,11.4c-1.5,0-2.6-1-2.6-2.6s1.1-2.6,2.6-2.6c1.4,0,2.6,1,2.6,2.6
			C55.1,10.4,54,11.4,52.5,11.4z M64.5,3.7c-3,0-5.3,2.1-5.3,5.1c0,3,2.2,5.1,5.3,5.1s5.3-2.1,5.3-5.1C69.7,5.8,67.5,3.7,64.5,3.7z
			 M64.5,11.4c-1.5,0-2.6-1-2.6-2.6s1.1-2.6,2.6-2.6c1.5,0,2.6,1,2.6,2.6C67,10.4,65.9,11.4,64.5,11.4z M76.4,3.7
			c-3,0-5.3,2.1-5.3,5.1c0,3,2.2,5.1,5.3,5.1s5.3-2.1,5.3-5.1C81.7,5.8,79.4,3.7,76.4,3.7z M76.4,11.4c-1.5,0-2.6-1-2.6-2.6
			s1.1-2.6,2.6-2.6c1.5,0,2.6,1,2.6,2.6C79,10.4,77.9,11.4,76.4,11.4z M90.1,4.1C90.1,4,90,3.9,90,3.9c-0.2-0.1-0.5-0.2-1.1-0.2
			c-1.4,0-2.6,0.7-3.1,1.8V4.1c0-0.1-0.1-0.2-0.2-0.2h-2c-0.1,0-0.2,0.1-0.2,0.2v9.3c0,0.1,0.1,0.2,0.2,0.2h2.1
			c0.1,0,0.2-0.1,0.2-0.2V9.3c0-1.9,1.3-2.8,3-2.8c0.4,0,0.8,0.1,1,0.2c0.1,0,0.3-0.1,0.3-0.2V4.1z"/>
	</g>
	<g>
		<path class="st0" d="M91.2,3.4c0-0.1,0-0.1,0-0.2c0-0.1,0-0.1,0.1-0.2c0-0.1,0.1-0.1,0.1-0.2c0,0,0.1-0.1,0.2-0.1
			c0.1,0,0.1-0.1,0.2-0.1c0.1,0,0.1,0,0.2,0c0.1,0,0.1,0,0.2,0c0.1,0,0.1,0,0.2,0.1c0.1,0,0.1,0.1,0.2,0.1c0,0,0.1,0.1,0.1,0.2
			c0,0.1,0.1,0.1,0.1,0.2c0,0.1,0,0.1,0,0.2c0,0.1,0,0.1,0,0.2c0,0.1,0,0.1-0.1,0.2c0,0.1-0.1,0.1-0.1,0.2c0,0-0.1,0.1-0.2,0.1
			c-0.1,0-0.1,0.1-0.2,0.1c-0.1,0-0.1,0-0.2,0c-0.1,0-0.1,0-0.2,0c-0.1,0-0.1,0-0.2-0.1c-0.1,0-0.1-0.1-0.2-0.1c0,0-0.1-0.1-0.1-0.2
			c0-0.1-0.1-0.1-0.1-0.2C91.3,3.5,91.2,3.4,91.2,3.4z M91.4,3.4c0,0.1,0,0.1,0,0.2c0,0.1,0,0.1,0.1,0.2c0,0.1,0.1,0.1,0.1,0.1
			c0,0,0.1,0.1,0.1,0.1c0,0,0.1,0.1,0.2,0.1c0.1,0,0.1,0,0.2,0c0.1,0,0.2,0,0.3-0.1c0.1,0,0.2-0.1,0.2-0.1c0.1-0.1,0.1-0.1,0.1-0.2
			s0.1-0.2,0.1-0.3c0-0.1,0-0.1,0-0.2s0-0.1-0.1-0.2c0-0.1-0.1-0.1-0.1-0.1c0,0-0.1-0.1-0.1-0.1c0,0-0.1-0.1-0.2-0.1
			c-0.1,0-0.1,0-0.2,0c-0.1,0-0.2,0-0.3,0.1c-0.1,0-0.2,0.1-0.2,0.1c-0.1,0.1-0.1,0.1-0.1,0.2C91.4,3.2,91.4,3.3,91.4,3.4z
			 M91.9,3.5v0.4h-0.2v-1H92c0.1,0,0.2,0,0.3,0.1s0.1,0.1,0.1,0.2c0,0.1,0,0.1-0.1,0.2c0,0-0.1,0.1-0.2,0.1c0,0,0,0,0,0c0,0,0,0,0,0
			l0.2,0.4h-0.2c0,0,0,0-0.1,0L92,3.5c0,0,0,0,0,0C92,3.5,92,3.5,91.9,3.5L91.9,3.5z M91.9,3.3H92c0,0,0.1,0,0.1,0c0,0,0,0,0.1,0
			c0,0,0,0,0-0.1c0,0,0,0,0-0.1c0,0,0,0,0-0.1s0,0,0,0c0,0,0,0-0.1,0c0,0-0.1,0-0.1,0h-0.1V3.3z"/>
	</g>
</g>
</svg>
