<?xml version="1.0" encoding="utf-8"?>
<!-- Generator: Adobe Illustrator 19.2.0, SVG Export Plug-In . SVG Version: 6.00 Build 0)  -->
<svg version="1.1" id="Layer_1" xmlns="http://www.w3.org/2000/svg" xmlns:xlink="http://www.w3.org/1999/xlink" x="0px" y="0px"
	 viewBox="0 0 206.3 18" style="enable-background:new 0 0 206.3 18;" xml:space="preserve">
<style type="text/css">
	.st0{fill:#FFFFFF;}
</style>
<g>
	<polygon class="st0" points="84.3,0 86.5,6.9 93.8,6.9 87.9,11.1 90.1,18 84.3,13.7 78.5,18 80.7,11.1 74.8,6.9 82.1,6.9 	"/>
	<polygon class="st0" points="112.6,0 114.8,6.9 122,6.9 116.2,11.1 118.4,18 112.6,13.7 106.7,18 108.9,11.1 103.1,6.9 110.3,6.9 	
		"/>
	<polygon class="st0" points="140.4,0 142.7,6.9 149.9,6.9 144.1,11.1 146.3,18 140.4,13.7 134.6,18 136.8,11.1 131,6.9 138.2,6.9 	
		"/>
	<polygon class="st0" points="168.7,0 170.9,6.9 178.2,6.9 172.3,11.1 174.5,18 168.7,13.7 162.9,18 165.1,11.1 159.2,6.9 
		166.5,6.9 	"/>
	<polygon class="st0" points="196.9,0 199.1,6.9 206.3,6.9 200.5,11.1 202.7,18 196.9,13.7 191,18 193.3,11.1 187.4,6.9 194.7,6.9 	
		"/>
</g>
<g>
	<path class="st0" d="M7,6.6v1.9h4.5c-0.1,1.1-0.5,1.8-1,2.4c-0.7,0.7-1.7,1.4-3.5,1.4c-2.8,0-5-2.2-5-5s2.2-5,5-5
		c1.5,0,2.6,0.6,3.4,1.4l1.3-1.3C10.7,1.1,9.1,0.3,7,0.3c-3.8,0-7,3.1-7,6.9s3.2,6.9,7,6.9c2.1,0,3.6-0.7,4.8-1.9
		c1.2-1.2,1.6-3,1.6-4.4c0-0.4,0-0.8-0.1-1.2H7z"/>
	<path class="st0" d="M19.2,5.1c-2.5,0-4.5,1.9-4.5,4.5c0,2.6,2,4.5,4.5,4.5s4.5-1.9,4.5-4.5C23.7,6.9,21.6,5.1,19.2,5.1z
		 M19.2,12.2c-1.4,0-2.5-1.1-2.5-2.7c0-1.6,1.2-2.7,2.5-2.7s2.5,1.1,2.5,2.7C21.7,11.1,20.5,12.2,19.2,12.2z"/>
	<path class="st0" d="M41.2,6.1L41.2,6.1c-0.5-0.5-1.4-1-2.4-1c-2.2,0-4.2,1.9-4.2,4.5c0,2.5,1.9,4.5,4.2,4.5c1.1,0,1.9-0.5,2.4-1
		h0.1v0.6c0,1.7-0.9,2.6-2.4,2.6c-1.2,0-1.9-0.9-2.3-1.6l-1.7,0.7c0.5,1.2,1.8,2.6,4,2.6c2.3,0,4.3-1.4,4.3-4.7v-8h-1.9V6.1z
		 M38.9,12.2c-1.4,0-2.4-1.2-2.4-2.7c0-1.6,1-2.7,2.4-2.7c1.3,0,2.4,1.2,2.4,2.7C41.3,11.1,40.3,12.2,38.9,12.2z"/>
	<path class="st0" d="M29.2,5.1c-2.5,0-4.5,1.9-4.5,4.5c0,2.6,2,4.5,4.5,4.5s4.5-1.9,4.5-4.5C33.7,6.9,31.7,5.1,29.2,5.1z
		 M29.2,12.2c-1.4,0-2.5-1.1-2.5-2.7c0-1.6,1.2-2.7,2.5-2.7c1.4,0,2.5,1.1,2.5,2.7C31.7,11.1,30.5,12.2,29.2,12.2z"/>
	<path class="st0" d="M44.6,0.5h1.9V14h-1.9V0.5z"/>
	<path class="st0" d="M52.5,12.2c-1,0-1.7-0.5-2.2-1.4l6-2.5l-0.2-0.5c-0.4-1-1.5-2.8-3.8-2.8C50,5.1,48,6.9,48,9.5
		c0,2.5,1.9,4.5,4.4,4.5c2,0,3.2-1.3,3.7-2l-1.5-1C54.2,11.8,53.5,12.2,52.5,12.2L52.5,12.2z M52.3,6.7c0.8,0,1.5,0.4,1.7,1l-4,1.7
		C50,7.5,51.3,6.7,52.3,6.7z"/>
</g>
</svg>
